<svg width="256" height="253.67" xmlns="http://www.w3.org/2000/svg"><path d="M167.46 102.77c-12.213 48.969-26.892 97.703-31.824 105.81l-2.231 3.64-20.316.353c-23.486.352-107.21-1.057-110.74-1.88-2.231-.586-2.349 0-2.349 21.139v21.842l5.872-.705c3.288-.352 60.829-1.057 128-1.409l122.13-.822v-41.336l-9.982.822c-5.52.352-22.899.822-38.635.822-22.429.117-28.418-.235-27.949-1.41.352-.704 2.584-5.87 4.932-11.39 7.633-17.85 34.76-101.34 33.35-102.63-.47-.47-38.283-11.04-42.862-12.095-2.348-.47-2.818.822-7.398 19.259zM57.54 90.909c-15.031 5.872-18.789 7.868-18.554 9.512.117 1.174 2.584 8.572 5.52 16.44 6.81 17.967 14.56 45.094 19.493 67.875 2.114 9.63 3.993 17.732 4.11 17.967.235.235 9.747-2.936 21.372-7.046l21.02-7.398-1.409-7.046c-4.11-19.728-29.123-98.172-31.354-97.938-.822.117-9.864 3.523-20.198 7.633zM124.123.604l-21.49.352.94 11.508c.47 6.224.939 13.974.939 17.262v5.872H8.218l.704 42.04 7.868-.822c17.85-1.644 119.19-2.114 171.68-.822 30.062.822 55.428 1.644 56.367 1.879 1.527.47 1.762-2.349 1.762-20.903V35.598l-44.976.47c-24.661.234-46.738 0-49.086-.353l-4.11-.822.352-17.615c.352-15.03.118-17.497-1.41-17.262-.939.118-11.39.47-23.25.587z" fill="#2e84bf"/></svg>